<?xml version="1.0" standalone="no"?>
<!DOCTYPE svg PUBLIC "-//W3C//DTD SVG 1.1//EN" "http://www.w3.org/Graphics/SVG/1.1/DTD/svg11.dtd">
<svg xmlns="http://www.w3.org/2000/svg" xmlns:xlink="http://www.w3.org/1999/xlink" version="1.1" id="Layer_1" x="0px" y="0px" viewBox="0 0 890.6 196.8" style="enable-background:new 0 0 890.6 196.8;" xml:space="preserve" width="890.5999755859375" height="196.8000030517578">
<style type="text/css">
	.st0{fill:#EE324B;}
</style>
<path class="st0" d="M180.5,92.6l0,13.8c0,49.9-40.3,90.3-90.2,90.3S0,156.3,0,106.4V60.8c0-10.4,5.1-17.6,13.7-22.2l65.4-36  c3-1.5,6.5-2.7,11.1-2.7c4.6,0,8.1,1.2,11.1,2.7l65.4,36l-30.6,23.9v0l0,0L97,40.9c-1.8-0.9-3.9-1.6-6.7-1.6c-2.8,0-4.9,0.7-6.7,1.6  L44.3,62.5c-5.1,2.8-8.2,7.1-8.2,13.3v27.4c0,30,24.3,57.5,54.2,57.5c21.8,0,40.6-14.6,49.2-34.1H90.3v-34H180.5z M451.9,65.2h34  V194h-34v-11.4c-10.7,8.9-24.4,14.2-40.1,14.2c-36.3,0-64-30-64-67.3c0-37.1,27.7-67.1,64-67.1c15.8,0,29.5,5.3,40.1,14.2  L451.9,65.2L451.9,65.2z M449.8,129.5c0-18.3-15-33.3-33.5-33.3s-33.5,15-33.5,33.3c0,18.5,15,33.5,33.5,33.5  S449.8,148.1,449.8,129.5z M268.2,62.4c-14.5,0-26.2,5.1-34.8,13.7V4.8h-33.8V194h33.8v-61.7c0-18.8,8.9-36.1,30.2-36.1  c20.3,0,29.7,15.5,29.7,31.2V194h34v-66.6C327.4,91.4,308.1,62.4,268.2,62.4z M268.2,62.4C268.2,62.4,268.2,62.4,268.2,62.4  C268.2,62.4,268.2,62.4,268.2,62.4L268.2,62.4z M854.3,65.2L854.3,65.2l-34.8,84.6l-34.5-84.6h-36.3L801.4,194h36.3l52.8-128.8  H854.3z M715.1,164.3L715.1,164.3c-9.1,0-14.2-5.6-14.2-15.2V97h35.1V65.2h-35.1V36.5h-34v28.7h-21.3V97h21.3v52.1  c0,33,17.5,47,44.7,47c16.5,0,28.5-8.9,35.8-17.3l-20.6-20.6C725,160.3,720.9,164.3,715.1,164.3z M605.6,157.7  c-10.9,0-19.8,8.6-19.8,19.6c0,10.9,8.9,19.6,19.8,19.6s19.6-8.6,19.6-19.6C625.1,166.3,616.5,157.7,605.6,157.7z M545.1,82  L545.1,82V65.2h-33.8V194h33.8v-50.3c0-39.4,15.5-47.5,39.4-47.5V62.4C567.2,62.4,554.2,69.3,545.1,82z"/>
</svg>