<svg xmlns="http://www.w3.org/2000/svg" viewBox="1 19 326 72"><path fill="#ee324b" d="M19.30 72.79C29.52 72.79 36.79 66.24 36.79 57.24C36.79 46.30 27.43 43.70 21.10 41.54C15.12 39.60 14.11 37.66 14.11 35.21C14.11 32.98 15.70 30.53 18.94 30.53C22.54 30.53 23.83 33.05 24.05 34.92L34.06 33.62C33.26 27.14 27.65 20.74 18.79 20.74C10.37 20.74 3.96 27.22 3.96 35.50C3.96 43.20 7.63 47.52 15.62 50.40C22.39 52.78 25.92 54.07 25.92 57.46C25.92 60.34 23.98 62.78 19.30 62.78C14.11 62.78 12.46 58.90 12.38 57.10L2.16 58.03C2.16 62.64 5.98 72.79 19.30 72.79ZM59.33 72.79C63.43 72.79 66.67 71.35 69.19 68.90L69.19 72L78.77 72L78.77 35.50L69.19 35.50L69.19 52.99C69.19 58.32 66.67 63.22 60.62 63.22C54.86 63.22 52.20 58.82 52.20 54.36L52.20 35.50L42.55 35.50L42.55 54.36C42.55 64.58 48.02 72.79 59.33 72.79ZM85.97 89.14L95.62 89.14L95.62 68.76C98.64 71.28 102.53 72.79 106.92 72.79C117.22 72.79 125.14 64.30 125.14 53.71C125.14 43.20 117.22 34.70 106.92 34.70C102.53 34.70 98.64 36.22 95.62 38.74L95.62 35.50L85.97 35.50ZM96.19 53.71C96.19 48.53 100.44 44.28 105.70 44.28C110.95 44.28 115.20 48.53 115.20 53.71C115.20 58.97 110.95 63.22 105.70 63.22C100.44 63.22 96.19 58.97 96.19 53.71ZM149.11 72.79C156.67 72.79 162.43 69.62 165.67 63.86L157.68 60.05C155.95 62.28 153.22 63.86 149.11 63.86C144.43 63.86 141.19 61.27 139.90 57.38L166.68 57.38C168.91 44.14 159.19 34.70 148.46 34.70C138.10 34.70 129.46 43.20 129.46 53.71C129.46 64.30 138.60 72.79 149.11 72.79ZM140.11 49.68C141.41 46.30 144.36 43.63 148.46 43.63C153.07 43.63 155.88 46.22 156.96 49.68ZM172.73 72L182.30 72L182.30 57.74C182.30 46.58 186.70 44.28 193.46 44.28L193.46 34.70C188.57 34.70 184.90 36.65 182.30 40.25L182.30 35.50L172.73 35.50Z"/><path fill="#111111" d="M198.78 72L209.08 72L209.08 54.72L214.84 54.72C226.36 54.72 233.20 47.66 233.20 38.16C233.20 28.66 226.36 21.60 214.84 21.60L198.78 21.60ZM209.08 45.14L209.08 31.18L214.84 31.18C220.60 31.18 222.76 34.34 222.76 38.16C222.76 41.98 220.60 45.14 214.84 45.14ZM239.32 72L248.90 72L248.90 57.74C248.90 46.58 253.29 44.28 260.06 44.28L260.06 34.70C255.16 34.70 251.49 36.65 248.90 40.25L248.90 35.50L239.32 35.50ZM282.74 72.79C293.25 72.79 302.18 64.30 302.18 53.71C302.18 43.20 293.25 34.70 282.74 34.70C272.15 34.70 263.30 43.20 263.30 53.71C263.30 64.30 272.15 72.79 282.74 72.79ZM273.23 53.71C273.23 48.53 277.48 44.28 282.74 44.28C287.99 44.28 292.24 48.53 292.24 53.71C292.24 58.97 287.99 63.22 282.74 63.22C277.48 63.22 273.23 58.97 273.23 53.71Z"/><path fill="#111111" d="M308.47 38.58L310.74 38.58L310.74 29.59L313.33 29.59L313.33 27.49L305.89 27.49L305.89 29.59L308.47 29.59ZM315.00 38.58L317.26 38.58L317.26 30.97L319.75 34.60L320.75 34.60L323.23 30.97L323.23 38.58L325.48 38.58L325.48 27.49L323.14 27.49L320.24 31.95L317.34 27.49L315.00 27.49Z"/></svg>